<svg width="1440" height="920" viewBox="0 0 1440 920" fill="none" xmlns="http://www.w3.org/2000/svg">
  <rect width="1440" height="920" fill="#060914"/>
  <radialGradient id="g1" cx="0" cy="0" r="1" gradientUnits="userSpaceOnUse" gradientTransform="translate(190 40) rotate(49) scale(420 320)"><stop stop-color="#5b46ff" stop-opacity="0.45"/><stop offset="1" stop-color="#060914" stop-opacity="0"/></radialGradient>
  <radialGradient id="g2" cx="0" cy="0" r="1" gradientUnits="userSpaceOnUse" gradientTransform="translate(1220 50) rotate(118) scale(420 300)"><stop stop-color="#2dd4bf" stop-opacity="0.32"/><stop offset="1" stop-color="#060914" stop-opacity="0"/></radialGradient>
  <rect width="1440" height="920" fill="url(#g1)"/><rect width="1440" height="920" fill="url(#g2)"/>
  <rect x="0" y="0" width="260" height="920" fill="#070C18" stroke="#23304A"/>
  <rect x="28" y="34" width="36" height="36" rx="12" fill="url(#b)"/><text x="76" y="58" fill="#F8FAFC" font-family="Inter,Arial" font-weight="800" font-size="18">Creator Ops</text>
  <defs><linearGradient id="b" x1="28" x2="64" y1="34" y2="70"><stop stop-color="#7C3AED"/><stop offset="1" stop-color="#06B6D4"/></linearGradient><linearGradient id="p" x1="0" x2="1"><stop stop-color="#7C3AED"/><stop offset="1" stop-color="#2563EB"/></linearGradient><linearGradient id="k" x1="0" x2="1"><stop stop-color="#38BDF8"/><stop offset=".5" stop-color="#A78BFA"/><stop offset="1" stop-color="#34D399"/></linearGradient></defs>
  <rect x="24" y="96" width="210" height="48" rx="14" fill="url(#p)" opacity=".82"/><text x="52" y="126" fill="white" font-family="Inter,Arial" font-weight="700" font-size="15">ダッシュボード</text>
  <text x="52" y="184" fill="#AAB7CF" font-family="Inter,Arial" font-size="15">Notionタスク</text><text x="52" y="232" fill="#AAB7CF" font-family="Inter,Arial" font-size="15">SNS分析</text><text x="52" y="280" fill="#AAB7CF" font-family="Inter,Arial" font-size="15">不動産Facebook</text><text x="52" y="328" fill="#AAB7CF" font-family="Inter,Arial" font-size="15">案件ロードマップ</text><text x="52" y="376" fill="#AAB7CF" font-family="Inter,Arial" font-size="15">設定</text>
  <rect x="24" y="730" width="210" height="150" rx="22" fill="#111B35" stroke="#263755"/><text x="46" y="770" fill="#7DD3FC" font-family="Inter,Arial" font-size="12" font-weight="800">TODAY FOCUS</text><text x="46" y="806" fill="#F8FAFC" font-family="Inter,Arial" font-size="18" font-weight="800">期限・反応・進捗を</text><text x="46" y="832" fill="#F8FAFC" font-family="Inter,Arial" font-size="18" font-weight="800">1画面で確認</text><rect x="46" y="850" width="100" height="34" rx="12" fill="url(#p)"/><text x="64" y="872" fill="white" font-family="Inter,Arial" font-size="13" font-weight="700">Notion同期</text>
  <rect x="292" y="30" width="1116" height="170" rx="30" fill="#0F172A" fill-opacity=".82" stroke="#263755"/><text x="324" y="75" fill="#7DD3FC" font-family="Inter,Arial" font-size="12" font-weight="900" letter-spacing="2">UNIFIED VISIBILITY DASHBOARD</text><text x="324" y="122" fill="white" font-family="Inter,Arial" font-size="42" font-weight="900">タスク、SNS、不動産投稿をクリック一つで見える化</text><text x="326" y="162" fill="#AAB7CF" font-family="Inter,Arial" font-size="17">NotionのタスクDBを中心に、日々の進捗・期限・優先順位・投稿反応をかんばん方式で整理。</text><rect x="1220" y="66" width="132" height="46" rx="14" fill="url(#p)"/><text x="1242" y="95" fill="white" font-family="Inter,Arial" font-weight="800" font-size="14">Notionから同期</text>
  <g font-family="Inter,Arial"><rect x="292" y="224" width="262" height="128" rx="24" fill="#111B2D" stroke="#263755"/><text x="326" y="266" fill="#AAB7CF" font-size="14">総タスク</text><text x="326" y="306" fill="white" font-size="36" font-weight="900">28</text><path d="M420 318 C445 292 468 330 498 288 S530 305 540 276" stroke="#38BDF8" stroke-width="4" fill="none" stroke-linecap="round"/>
  <rect x="576" y="224" width="262" height="128" rx="24" fill="#111B2D" stroke="#263755"/><text x="610" y="266" fill="#AAB7CF" font-size="14">進行中</text><text x="610" y="306" fill="white" font-size="36" font-weight="900">7</text><path d="M704 318 C729 300 752 328 782 294 S814 305 824 278" stroke="#A78BFA" stroke-width="4" fill="none" stroke-linecap="round"/>
  <rect x="860" y="224" width="262" height="128" rx="24" fill="#111B2D" stroke="#263755"/><text x="894" y="266" fill="#AAB7CF" font-size="14">SNS投稿</text><text x="894" y="306" fill="white" font-size="36" font-weight="900">42</text><path d="M988 318 C1013 296 1036 330 1066 290 S1098 304 1108 276" stroke="#34D399" stroke-width="4" fill="none" stroke-linecap="round"/>
  <rect x="1144" y="224" width="262" height="128" rx="24" fill="#111B2D" stroke="#263755"/><text x="1178" y="266" fill="#AAB7CF" font-size="14">不動産投稿</text><text x="1178" y="306" fill="white" font-size="36" font-weight="900">3</text><path d="M1272 318 C1297 292 1320 330 1350 288 S1382 305 1392 276" stroke="#F472B6" stroke-width="4" fill="none" stroke-linecap="round"/></g>
  <rect x="292" y="378" width="760" height="380" rx="26" fill="#0F172A" fill-opacity=".86" stroke="#263755"/><text x="324" y="424" fill="#7DD3FC" font-family="Inter,Arial" font-size="12" font-weight="900">KANBAN</text><text x="324" y="456" fill="white" font-family="Inter,Arial" font-size="24" font-weight="900">案件別タスク進捗</text>
  <g font-family="Inter,Arial" font-size="14"><rect x="324" y="492" width="132" height="235" rx="18" fill="#070C18" stroke="#263755"/><text x="342" y="522" fill="#CBD5E1">未着手</text><rect x="342" y="548" width="96" height="88" rx="14" fill="#17233C"/><text x="354" y="578" fill="white">Threads投稿</text><rect x="354" y="604" width="68" height="7" rx="4" fill="url(#k)"/>
  <rect x="472" y="492" width="132" height="235" rx="18" fill="#070C18" stroke="#263755"/><text x="490" y="522" fill="#CBD5E1">進行中</text><rect x="490" y="548" width="96" height="88" rx="14" fill="#17233C"/><text x="502" y="578" fill="white">ブログ記事</text><rect x="502" y="604" width="80" height="7" rx="4" fill="url(#k)"/>
  <rect x="620" y="492" width="132" height="235" rx="18" fill="#070C18" stroke="#263755"/><text x="638" y="522" fill="#CBD5E1">レビュー</text><rect x="638" y="548" width="96" height="88" rx="14" fill="#17233C"/><text x="650" y="578" fill="white">物件投稿</text><rect x="650" y="604" width="86" height="7" rx="4" fill="url(#k)"/>
  <rect x="768" y="492" width="132" height="235" rx="18" fill="#070C18" stroke="#263755"/><text x="786" y="522" fill="#CBD5E1">要確認</text><rect x="786" y="548" width="96" height="88" rx="14" fill="#17233C"/><text x="798" y="578" fill="white">LP改善</text><rect x="798" y="604" width="52" height="7" rx="4" fill="url(#k)"/>
  <rect x="916" y="492" width="104" height="235" rx="18" fill="#070C18" stroke="#263755"/><text x="934" y="522" fill="#CBD5E1">完了</text><rect x="934" y="548" width="68" height="88" rx="14" fill="#17233C"/><text x="946" y="578" fill="white">同期</text><rect x="946" y="604" width="48" height="7" rx="4" fill="url(#k)"/></g>
  <rect x="1074" y="378" width="334" height="184" rx="26" fill="#0F172A" fill-opacity=".86" stroke="#263755"/><text x="1106" y="424" fill="#7DD3FC" font-family="Inter,Arial" font-size="12" font-weight="900">WORKLOAD</text><text x="1106" y="456" fill="white" font-family="Inter,Arial" font-size="24" font-weight="900">現在の集中ポイント</text><circle cx="1240" cy="508" r="54" fill="none" stroke="#34D399" stroke-width="22" stroke-dasharray="240 340"/><circle cx="1240" cy="508" r="54" fill="none" stroke="#8B5CF6" stroke-width="22" stroke-dasharray="82 340" stroke-dashoffset="-240"/><text x="1208" y="518" fill="white" font-family="Inter,Arial" font-size="28" font-weight="900">60%</text>
  <rect x="1074" y="586" width="334" height="172" rx="26" fill="#0F172A" fill-opacity=".86" stroke="#263755"/><text x="1106" y="632" fill="#7DD3FC" font-family="Inter,Arial" font-size="12" font-weight="900">FACEBOOK</text><text x="1106" y="664" fill="white" font-family="Inter,Arial" font-size="24" font-weight="900">不動産投稿管理</text><text x="1108" y="704" fill="#CBD5E1" font-family="Inter,Arial" font-size="15">東新宿リノベーション物件</text><text x="1108" y="732" fill="#CBD5E1" font-family="Inter,Arial" font-size="15">横浜ファミリー向けマンション</text><rect x="1304" y="690" width="70" height="24" rx="12" fill="#0E7490"/><text x="1316" y="707" fill="#BAE6FD" font-family="Inter,Arial" font-size="11">scheduled</text>
  <rect x="292" y="780" width="1116" height="96" rx="26" fill="#0F172A" fill-opacity=".86" stroke="#263755"/><text x="324" y="822" fill="#7DD3FC" font-family="Inter,Arial" font-size="12" font-weight="900">SNS ANALYTICS</text><path d="M480 846 C560 798 620 865 700 822 S870 802 960 838 S1110 864 1240 810" stroke="url(#k)" stroke-width="5" fill="none" stroke-linecap="round"/>
</svg>
